<mxfile host="www.draw.io" modified="2020-07-09T06:17:24.789Z" agent="5.0 (Macintosh; Intel Mac OS X 10_14_2) AppleWebKit/537.36 (KHTML, like Gecko) Chrome/83.0.4103.116 Safari/537.36" etag="IYv4ocLix-577ErJWsZ9" version="13.0.1" type="github">
  <diagram id="P550nqf9voBEcJ9Rrrwr" name="第 1 页">
    <mxGraphModel dx="946" dy="515" grid="1" gridSize="10" guides="1" tooltips="1" connect="1" arrows="1" fold="1" page="1" pageScale="1" pageWidth="827" pageHeight="1169" math="0" shadow="0">
      <root>
        <mxCell id="0" />
        <mxCell id="1" parent="0" />
        <mxCell id="Gd_LwabO7tRJtpeHq0y3-4" style="edgeStyle=orthogonalEdgeStyle;rounded=0;orthogonalLoop=1;jettySize=auto;html=1;exitX=1;exitY=0.5;exitDx=0;exitDy=0;entryX=0;entryY=0.5;entryDx=0;entryDy=0;" edge="1" parent="1" source="Gd_LwabO7tRJtpeHq0y3-1" target="Gd_LwabO7tRJtpeHq0y3-2">
          <mxGeometry relative="1" as="geometry" />
        </mxCell>
        <mxCell id="Gd_LwabO7tRJtpeHq0y3-10" style="edgeStyle=orthogonalEdgeStyle;curved=1;rounded=0;jumpStyle=none;orthogonalLoop=1;jettySize=auto;html=1;exitX=0.5;exitY=1;exitDx=0;exitDy=0;entryX=0.5;entryY=1;entryDx=0;entryDy=0;" edge="1" parent="1" source="Gd_LwabO7tRJtpeHq0y3-1" target="Gd_LwabO7tRJtpeHq0y3-2">
          <mxGeometry relative="1" as="geometry">
            <Array as="points">
              <mxPoint x="160" y="250" />
              <mxPoint x="500" y="250" />
            </Array>
          </mxGeometry>
        </mxCell>
        <mxCell id="Gd_LwabO7tRJtpeHq0y3-11" value="3、submitReq" style="edgeLabel;html=1;align=center;verticalAlign=middle;resizable=0;points=[];" vertex="1" connectable="0" parent="Gd_LwabO7tRJtpeHq0y3-10">
          <mxGeometry x="-0.1415" relative="1" as="geometry">
            <mxPoint as="offset" />
          </mxGeometry>
        </mxCell>
        <mxCell id="Gd_LwabO7tRJtpeHq0y3-1" value="哈啰&lt;br&gt;&amp;nbsp;47.96.16.141" style="ellipse;whiteSpace=wrap;html=1;aspect=fixed;" vertex="1" parent="1">
          <mxGeometry x="120" y="120" width="80" height="80" as="geometry" />
        </mxCell>
        <mxCell id="Gd_LwabO7tRJtpeHq0y3-6" style="edgeStyle=orthogonalEdgeStyle;rounded=0;orthogonalLoop=1;jettySize=auto;html=1;exitX=0;exitY=1;exitDx=0;exitDy=0;jumpStyle=none;curved=1;" edge="1" parent="1" source="Gd_LwabO7tRJtpeHq0y3-2">
          <mxGeometry relative="1" as="geometry">
            <mxPoint x="200" y="160" as="targetPoint" />
          </mxGeometry>
        </mxCell>
        <mxCell id="Gd_LwabO7tRJtpeHq0y3-7" value="2、bindResp" style="edgeLabel;html=1;align=center;verticalAlign=middle;resizable=0;points=[];" vertex="1" connectable="0" parent="Gd_LwabO7tRJtpeHq0y3-6">
          <mxGeometry x="-0.3033" y="-9" relative="1" as="geometry">
            <mxPoint as="offset" />
          </mxGeometry>
        </mxCell>
        <mxCell id="Gd_LwabO7tRJtpeHq0y3-12" style="edgeStyle=orthogonalEdgeStyle;curved=1;rounded=0;jumpStyle=none;orthogonalLoop=1;jettySize=auto;html=1;exitX=0.5;exitY=1;exitDx=0;exitDy=0;strokeColor=#FF3333;" edge="1" parent="1" source="Gd_LwabO7tRJtpeHq0y3-2">
          <mxGeometry relative="1" as="geometry">
            <mxPoint x="160" y="200" as="targetPoint" />
            <Array as="points">
              <mxPoint x="500" y="250" />
              <mxPoint x="295" y="250" />
              <mxPoint x="295" y="300" />
              <mxPoint x="160" y="300" />
            </Array>
          </mxGeometry>
        </mxCell>
        <mxCell id="Gd_LwabO7tRJtpeHq0y3-13" value="4、submitResp" style="edgeLabel;html=1;align=center;verticalAlign=middle;resizable=0;points=[];" vertex="1" connectable="0" parent="Gd_LwabO7tRJtpeHq0y3-12">
          <mxGeometry x="0.4824" y="-10" relative="1" as="geometry">
            <mxPoint as="offset" />
          </mxGeometry>
        </mxCell>
        <mxCell id="Gd_LwabO7tRJtpeHq0y3-16" value="Connection reset by peer" style="edgeLabel;html=1;align=center;verticalAlign=middle;resizable=0;points=[];" vertex="1" connectable="0" parent="Gd_LwabO7tRJtpeHq0y3-12">
          <mxGeometry x="0.1412" y="-4" relative="1" as="geometry">
            <mxPoint x="41" as="offset" />
          </mxGeometry>
        </mxCell>
        <mxCell id="Gd_LwabO7tRJtpeHq0y3-15" style="edgeStyle=orthogonalEdgeStyle;curved=1;rounded=0;jumpStyle=none;orthogonalLoop=1;jettySize=auto;html=1;exitX=0.5;exitY=1;exitDx=0;exitDy=0;entryX=0.5;entryY=0;entryDx=0;entryDy=0;strokeColor=#FF3333;" edge="1" parent="1" source="Gd_LwabO7tRJtpeHq0y3-2" target="Gd_LwabO7tRJtpeHq0y3-14">
          <mxGeometry relative="1" as="geometry" />
        </mxCell>
        <mxCell id="Gd_LwabO7tRJtpeHq0y3-17" value="4、submitResp ？？？" style="edgeLabel;html=1;align=center;verticalAlign=middle;resizable=0;points=[];" vertex="1" connectable="0" parent="Gd_LwabO7tRJtpeHq0y3-15">
          <mxGeometry x="-0.1091" y="3" relative="1" as="geometry">
            <mxPoint as="offset" />
          </mxGeometry>
        </mxCell>
        <mxCell id="Gd_LwabO7tRJtpeHq0y3-2" value="联通&lt;br&gt;&lt;pre style=&quot;font-family: &amp;#34;menlo&amp;#34; ; font-size: 9pt&quot;&gt;&lt;span style=&quot;font-weight: bold&quot;&gt;58.240.53.105：8801&lt;/span&gt;&lt;/pre&gt;" style="ellipse;whiteSpace=wrap;html=1;aspect=fixed;" vertex="1" parent="1">
          <mxGeometry x="430" y="90" width="140" height="140" as="geometry" />
        </mxCell>
        <mxCell id="Gd_LwabO7tRJtpeHq0y3-5" value="1、bindReq" style="text;html=1;align=center;verticalAlign=middle;resizable=0;points=[];autosize=1;" vertex="1" parent="1">
          <mxGeometry x="273" y="154" width="80" height="20" as="geometry" />
        </mxCell>
        <mxCell id="Gd_LwabO7tRJtpeHq0y3-14" value="哈啰&lt;br&gt;&amp;nbsp;47.96.16.141：8800" style="ellipse;whiteSpace=wrap;html=1;aspect=fixed;" vertex="1" parent="1">
          <mxGeometry x="460" y="340" width="80" height="80" as="geometry" />
        </mxCell>
      </root>
    </mxGraphModel>
  </diagram>
</mxfile>
